<svg width="1089" height="974" viewBox="0 0 1089 974" fill="none" xmlns="http://www.w3.org/2000/svg">
<path fill-rule="evenodd" clip-rule="evenodd" d="M395.594 1.20808C394.4 4.82308 393.014 18.7301 391.981 37.4581L390.822 58.4581L388.823 62.4581C380.691 78.7381 365.58 92.2291 342.532 103.785C333.753 108.187 294.232 124.958 292.638 124.958C292.313 124.958 290.14 125.827 287.808 126.889C285.477 127.951 277.944 131.356 271.069 134.456C255.3 141.566 228.07 155.693 217.588 162.202L209.569 167.182L200.27 167.029C182.11 166.73 166.1 170.078 150.613 177.412C141.424 181.763 134.071 184.009 111.069 189.49C89.2048 194.7 64.2078 203.534 51.3048 210.611C40.7578 216.396 29.4868 224.61 20.9528 232.731C11.3428 241.876 -1.6652 258.213 0.175803 258.827C0.783803 259.03 4.4968 256.06 8.4258 252.227C33.9358 227.337 74.4538 207.908 117.627 199.862L129.237 197.699L136.403 199.298C140.344 200.178 146.944 201.377 151.069 201.963C163.649 203.75 174.47 206.685 187.311 211.793C211.075 221.247 229.601 226.363 264.069 232.988C273.144 234.733 280.953 236.395 281.423 236.682C281.893 236.97 276.043 240.436 268.423 244.385C219.928 269.516 181.34 297.593 144.011 334.906C89.0338 389.861 54.2358 456.347 50.0348 514.458C48.2418 539.253 52.1458 558.155 62.4238 574.441L65.5688 579.425L65.5018 594.941L65.4358 610.458L62.6758 626.396C55.5668 667.444 39.7708 711.979 12.1218 768.931C2.6438 788.453 0.823812 793.433 5.17481 787.943C36.7098 748.15 65.7968 680.187 74.6278 625.662C75.5898 619.724 76.6718 615.224 77.0328 615.662C77.3938 616.1 79.6238 621.408 81.9888 627.458C84.3538 633.508 90.8008 647.683 96.3158 658.958C101.83 670.233 108.928 685.083 112.089 691.958C115.249 698.833 122.655 714.583 128.547 726.958C134.439 739.333 142.877 757.333 147.3 766.958C151.723 776.583 159.147 792.558 163.799 802.458C185.38 848.383 194.164 879.668 202.545 940.458C206.694 970.552 206.943 972.165 207.521 972.744C209.095 974.317 209.6 970.077 209.919 952.627C210.502 920.725 206.863 892.299 198.039 859.849C192.561 839.703 191.253 836.609 158.465 766.314C153.297 755.236 149.069 745.907 149.069 745.584C149.069 745.261 145.919 738.648 142.069 730.888C138.219 723.128 135.069 716.551 135.069 716.273C135.069 715.995 145.082 725.884 157.319 738.249C194.187 775.502 209.982 788.263 292.294 847.299C330.102 874.416 342.514 882.188 355.214 886.696L362.569 889.307L369.569 889.327C378.154 889.351 382.41 887.965 405.018 877.779C435.273 864.147 451.894 859.152 481.297 854.855L495.3 852.809L502.609 854.435C518.274 857.92 530.79 870.024 536.48 887.189C538.781 894.132 539.693 899.631 542.375 922.741C543.032 928.397 544.019 933.024 544.569 933.024C545.119 933.024 546.339 926.371 547.28 918.241C550.844 887.458 553.781 878.615 564.106 867.577C571.187 860.008 579.133 855.528 588.315 853.929L595.05 852.756L605.81 854.45C637.203 859.394 656.136 864.754 678.247 874.96C709.367 889.324 716.049 891.166 727.443 888.523C740.763 885.434 752.573 878.811 783.069 857.328C874.029 793.251 910.559 763.138 948.91 720.619C951.297 717.972 953.441 715.997 953.674 716.23C953.907 716.463 952.993 718.635 951.643 721.056C950.293 723.477 946.195 731.983 942.537 739.958C938.879 747.933 930.934 765.258 924.882 778.458C918.831 791.658 911.382 807.633 908.329 813.958C890.057 851.821 878.9 901.474 878.67 945.958C878.57 965.235 879.376 974.06 881.079 972.338C881.558 971.854 883.113 962.908 884.535 952.458C893.41 887.259 903.793 847.685 922.056 809.458C925.472 802.308 933.13 785.883 939.073 772.958C951.413 746.125 954.445 739.616 966.552 713.958C971.353 703.783 977.511 690.52 980.236 684.484C982.96 678.449 986.777 670.574 988.716 666.984C993.57 658.002 1003.51 636.399 1007.8 625.496C1009.76 620.525 1011.67 616.112 1012.04 615.689C1012.4 615.266 1013.7 620.666 1014.92 627.689C1022.7 672.697 1042.91 725.553 1067.04 764.022C1075.46 777.438 1085.33 790.663 1085.83 789.181C1086.02 788.609 1082.98 781.766 1079.08 773.974C1057.32 730.545 1041.21 688.642 1032.01 651.593C1025.9 626.941 1023.08 608.252 1023.07 592.233L1023.07 580.007L1028.01 570.733C1033.8 559.859 1036.57 550.553 1038.21 536.457L1039.4 526.245L1038.19 512.852C1035.33 481.179 1024.26 447.301 1006.38 415.564C968.377 348.104 903.395 288.19 821.339 244.956C813.513 240.832 807.102 237.233 807.094 236.958C807.085 236.683 814.838 234.954 824.323 233.117C858.419 226.511 875.212 221.894 897.607 212.969C912.28 207.12 921.387 204.609 940.16 201.235C959.409 197.775 965.465 197.987 984.776 202.797C1022.07 212.085 1053.46 227.99 1078.06 250.051C1083.64 255.056 1088.39 258.97 1088.61 258.75C1089.65 257.712 1079.18 244.153 1070.85 235.756C1048.92 213.632 1022.6 200.834 974.569 188.929L949.569 182.734L937.569 177.435C919.78 169.579 905.509 166.584 888.196 167.072L879.569 167.316L869.569 161.303C846.44 147.395 819.298 134.295 786.069 121.004C758.907 110.139 754.924 108.428 743.569 102.751C724.944 93.4381 712.36 82.8961 703.059 68.8131L697.35 60.1671L696.683 46.3131C695.701 25.9381 693.914 4.77908 692.956 2.20808C691.955 -0.48092 690.416 -0.71292 689.65 1.70808C688.053 6.74808 685.896 34.4251 685.379 56.5091C684.169 108.078 690.97 143.891 706.381 167.108C712.023 175.609 726.75 189.657 735.069 194.473L736.569 195.342L735.069 193.413C734.244 192.352 732.726 190.578 731.696 189.471C726.819 184.23 718.276 171.739 713.959 163.538C703.207 143.111 697.509 118.395 695.762 84.6051L695.356 76.7511L702.213 84.2661C713.727 96.8861 728.608 106.875 750.233 116.501C759.979 120.839 764.904 122.838 787.319 131.555C813.773 141.843 864.069 166.999 864.069 169.942C864.069 170.358 861.257 171.225 857.819 171.869C841.538 174.921 797.124 185.825 763.069 195.132C727.61 204.821 715.315 208.059 676.069 218.038C623.562 231.389 616.695 233.624 604.876 241.207C594.271 248.012 586.115 257.029 587.44 260.483C588.379 262.93 590.208 262.187 598.569 255.957C614.758 243.895 624.506 240.058 662.069 230.964C691.817 223.761 728.011 214.399 749.498 208.349C791.301 196.578 863.285 179.647 883.069 176.933C898.673 174.792 918.144 177.723 930.547 184.079C937.377 187.579 940.601 190.289 939.689 191.763C939.347 192.317 936.705 193.073 933.818 193.442C923.396 194.775 908.262 199.176 892.569 205.437C871.245 213.944 862.646 216.099 800.569 228.493C771.419 234.313 742.985 240.157 737.381 241.48C716.764 246.35 679.268 256.822 645.069 267.263C633.406 270.823 617.293 275.544 604.569 279.13C600.719 280.215 596.894 281.688 596.069 282.404C595.244 283.12 592.769 284.267 590.569 284.953C571.516 290.896 556.266 306.569 551.162 325.451L549.543 331.444L546.613 332.848L543.683 334.252L541.221 332.855L538.759 331.458L537.049 325.458C531.975 307.654 523.341 297.245 506.728 288.901C501.316 286.182 496.177 283.958 495.307 283.958C494.438 283.958 493.016 283.342 492.148 282.59C491.279 281.837 485.619 279.767 479.569 277.989C473.519 276.21 464.294 273.475 459.069 271.91C453.844 270.346 446.419 268.187 442.569 267.113C438.719 266.04 426.569 262.444 415.569 259.123C368.574 244.933 352.961 241.236 275.569 225.975C229.569 216.904 212.903 212.652 196.011 205.679C180.904 199.442 158.046 192.958 151.17 192.958C148.537 192.958 147.591 191.238 149.175 189.33C151.315 186.752 163.843 180.94 171.933 178.771L179.569 176.724L193.069 176.701L206.569 176.677L219.069 179.242C254.942 186.603 290.051 195.35 373.569 217.733C413.72 228.493 420.207 230.161 433.069 233.031C461.297 239.329 472.429 243.827 488.569 255.455C493.519 259.021 498.019 261.793 498.569 261.615C502.666 260.291 497.563 251.792 488.789 245.326C475.443 235.491 465.863 231.877 429.069 222.797C413.394 218.929 381.669 210.597 358.569 204.282C310.432 191.122 251.787 176.156 235.319 172.829C229.132 171.578 224.083 170.308 224.1 170.007C224.161 168.938 245.914 157.02 262.128 149.172C279.94 140.55 287.723 137.161 316.175 125.635C356.377 109.351 373.732 98.8881 387.011 82.9321C389.793 79.5891 392.123 77.2151 392.188 77.6561C392.856 82.1391 390.646 107.653 388.504 120.194C384.166 145.595 372.141 171.962 357.435 188.318C355.003 191.023 353.224 193.446 353.48 193.702C353.737 193.959 356.781 191.988 360.245 189.322C389.995 166.431 401.2 135.864 402.72 73.4581L403.304 49.4581L401.157 26.4581C399.976 13.8081 398.767 2.67108 398.472 1.70808C397.848 -0.32192 396.194 -0.60992 395.594 1.20808ZM278.882 249.63C211.919 283.351 155.447 329.183 116.682 381.267C109.056 391.514 106.153 395.789 95.8448 411.958C91.1538 419.316 88.8478 423.933 89.7928 424.073C90.2198 424.137 91.0188 424.293 91.5688 424.421C92.1188 424.549 94.9318 424.722 97.8188 424.806L103.069 424.958V428.42V431.883L93.8188 432.17L84.5688 432.458L81.3938 438.958C74.1828 453.723 66.3488 477.223 62.3938 495.958L60.5988 504.458L60.5838 523.958L60.5688 543.458L63.9128 553.674C65.7528 559.292 68.8538 566.492 70.8058 569.674C76.2408 578.536 76.7008 579.606 80.5878 592.442C92.6778 632.361 111.767 670.468 132.443 695.958C149.414 716.88 172.45 740.827 193.569 759.5C198.519 763.877 202.794 767.7 203.069 767.995C207.145 772.371 249.552 804.861 278.653 825.905C283.557 829.451 297.694 839.841 310.069 848.995C344.75 874.649 355.522 881.021 366.722 882.506C373.922 883.462 378.25 881.942 402.069 870.092C428.39 856.999 439.054 853.373 468.569 847.483C481.219 844.958 493.819 842.177 496.569 841.302C504.982 838.626 514.374 833.195 519.977 827.765L525.311 822.597L529.631 813.722C532.006 808.841 534.441 802.285 535.042 799.153C535.642 796.021 536.794 790.953 537.601 787.892L539.069 782.327V740.374V698.421L528.955 696.585L518.841 694.749L519.412 691.23C519.726 689.294 520.156 687.537 520.368 687.326C520.579 687.115 524.873 687.787 529.91 688.821L539.069 690.699L539.08 686.329C539.086 683.925 539.091 641.233 539.091 591.458C539.091 541.683 539.086 500.678 539.08 500.336C539.074 499.993 538.482 500.2 537.765 500.795L536.462 501.877L527.788 499.491C523.018 498.178 518.71 496.854 518.215 496.548C517.72 496.242 517.62 494.522 517.993 492.725L518.671 489.458L521.12 489.771C522.467 489.943 526.872 490.99 530.908 492.098C534.945 493.206 538.454 493.907 538.706 493.655C538.958 493.403 539.132 458.926 539.094 417.039L539.024 340.882L534.655 336.67L530.286 332.458L528.521 326.122C526.381 318.435 521.04 309.963 514.635 304.097C506.349 296.508 497.81 293.206 450.069 279.126C442.644 276.936 428.244 272.647 418.069 269.594C367.435 254.402 341.404 247.8 311.552 242.58L297.695 240.156L278.882 249.63ZM781.069 241.614C743.745 248.667 708.143 257.907 652.569 274.964C643.219 277.833 632.492 281.044 628.731 282.098C611.764 286.852 595.936 291.937 588.699 294.959C574.888 300.725 563.286 312.746 560.065 324.627C558.134 331.746 555.658 336.172 552.169 338.738L549.069 341.018V418.095V495.172L550.819 494.499C551.781 494.128 556.839 492.715 562.058 491.358L571.547 488.891L572.846 490.667C573.56 491.644 574.015 493.32 573.857 494.392L573.569 496.341L564.569 498.625C554.298 501.231 551.076 501.49 551.054 499.708C551.043 498.875 550.715 498.958 550.069 499.958C549.461 500.899 549.094 536.585 549.084 595.708L549.069 689.958H551.02C552.093 689.958 555.298 689.459 558.143 688.849L563.316 687.739L564.201 689.099C564.689 689.846 564.971 691.583 564.828 692.958L564.569 695.458L557.069 697.013L549.569 698.568V740.513V782.458L552.427 793.958C558.171 817.064 566.87 829.727 582.083 837.129C589.828 840.896 597.658 842.968 623.347 848.045C652.254 853.759 662.328 857.307 691.611 872.092L711.654 882.212L716.716 882.698C719.876 883.002 723.993 882.548 727.674 881.492C738.409 878.409 748.295 872.072 787.569 843.097C799.669 834.17 812.044 825.075 815.069 822.887C827.193 814.116 846.935 799.366 853.069 794.496C886.466 767.98 897.936 758.063 918.924 737.554C948.119 709.026 972.906 676.527 986.678 648.72C995.217 631.48 1005.95 602.852 1010.56 584.997C1011.48 581.444 1013.1 577.324 1014.15 575.842C1017.83 570.673 1024.06 556.4 1026.05 548.596C1031.43 527.416 1028.89 500.156 1018.55 467.958C1008.2 435.747 990.995 405.086 964.688 371.958C956.56 361.723 932.628 335.399 927.922 331.517C926.628 330.45 921.969 326.392 917.569 322.5C891.714 299.63 865.245 280.478 837.069 264.256C823.198 256.27 791.199 239.926 789.729 240.077C789.091 240.143 785.194 240.834 781.069 241.614ZM109.069 428.413V431.867L112.319 432.474C114.107 432.807 118.269 432.94 121.569 432.769L127.569 432.458L127.879 428.708L128.19 424.958H118.629H109.069V428.413ZM133.867 428.562C133.63 430.596 133.909 432.307 134.508 432.491C135.091 432.669 139.281 432.998 143.819 433.222L152.069 433.627V429.932V426.237L146.819 425.606C143.932 425.259 139.931 424.971 137.928 424.967L134.288 424.958L133.867 428.562ZM960.319 425.684L953.069 426.046L953.084 428.752C953.093 430.24 953.447 432.005 953.872 432.674L954.645 433.891L963.408 433.272L972.172 432.654L971.87 429.056L971.569 425.458L969.569 425.39C968.469 425.353 964.306 425.485 960.319 425.684ZM978.069 428.997V433.036L986.819 432.747L995.569 432.458L995.879 428.708L996.19 424.958H987.129H978.069V428.997ZM158.812 426.548C158.403 426.957 158.069 428.738 158.069 430.506V433.721L166.525 434.426C171.176 434.813 175.451 434.84 176.025 434.485C176.599 434.13 177.069 432.292 177.069 430.399V426.958H171.194C167.963 426.958 164.022 426.699 162.437 426.382C160.852 426.065 159.221 426.14 158.812 426.548ZM929.736 427.625C929.369 427.991 929.069 429.791 929.069 431.625V434.958L933.319 434.949C935.657 434.945 939.931 434.657 942.819 434.31L948.069 433.679V430.319V426.958H939.236C934.377 426.958 930.102 427.258 929.736 427.625ZM183.259 431.708L183.569 435.458L192.04 436.16L200.511 436.861L201.275 435.66C201.695 434.999 202.045 433.283 202.054 431.847L202.069 429.237L196.819 428.606C193.932 428.259 189.629 427.971 187.259 427.967L182.948 427.958L183.259 431.708ZM910.319 428.695L905.069 429.063V433.15V437.237L910.319 436.606C913.207 436.259 917.257 435.971 919.319 435.967L923.069 435.958V431.958V427.958L919.319 428.143C917.257 428.245 913.207 428.493 910.319 428.695ZM207.771 430.589C206.812 431.549 206.881 436.724 207.862 437.33C208.298 437.6 212.514 438.133 217.23 438.516L225.805 439.212L226.33 435.835C226.618 433.978 226.565 432.175 226.212 431.83C225.255 430.895 208.587 429.773 207.771 430.589ZM887.303 430.944C883.857 431.336 880.776 431.917 880.458 432.236C880.139 432.554 880.182 434.197 880.553 435.886L881.228 438.958H884.002C885.527 438.958 889.542 438.669 892.922 438.316L899.069 437.673V433.816V429.958L896.319 430.095C894.806 430.17 890.749 430.552 887.303 430.944ZM231.787 435.582C231.477 437.164 231.559 438.806 231.97 439.232C232.809 440.102 243.146 441.943 247.24 441.952L249.91 441.958L250.591 438.859C250.965 437.155 250.888 435.384 250.42 434.924C249.952 434.464 245.695 433.777 240.96 433.397L232.35 432.706L231.787 435.582ZM860.319 433.69L856.069 434.073L856.084 436.765C856.093 438.246 856.496 440.085 856.981 440.85L857.863 442.243L863.216 441.566C866.16 441.193 870.032 440.629 871.819 440.312L875.069 439.735V436.347V432.958L869.819 433.133C866.931 433.229 862.656 433.48 860.319 433.69ZM839.819 436.219L832.069 437.196V440.518C832.069 442.345 832.545 444.134 833.127 444.494C833.709 444.854 837.984 444.609 842.627 443.95L851.069 442.751L851.055 441.105C851.03 438.004 849.836 434.958 848.702 435.099C848.079 435.177 844.082 435.681 839.819 436.219ZM256.503 437.27C256.177 438.118 256.059 439.858 256.24 441.135L256.569 443.458L265.554 444.64C270.496 445.289 274.617 445.739 274.711 445.64C274.806 445.54 275.038 443.922 275.226 442.045L275.569 438.633L272.776 437.87C271.24 437.451 267.083 436.797 263.539 436.418L257.095 435.728L256.503 437.27ZM817.069 439.507C816.244 439.682 813.882 440.1 811.819 440.437L808.069 441.049V444.503V447.958L812.819 447.914C817.65 447.87 825.767 446.594 826.616 445.745C826.873 445.488 826.799 443.856 826.451 442.118L825.819 438.958L822.194 439.074C820.2 439.138 817.894 439.333 817.069 439.507ZM281.682 443.142C281.313 444.988 281.487 446.598 282.096 446.975C283.797 448.026 298.998 450.12 300.079 449.452C300.623 449.115 301.069 447.369 301.069 445.572V442.304L294.704 441.131C291.203 440.486 286.984 439.958 285.329 439.958H282.319L281.682 443.142ZM793.569 443.08C790.819 443.575 787.556 444.208 786.319 444.488L784.069 444.996V448.477V451.958L787.819 451.862C794.023 451.702 802.578 449.569 802.469 448.208C802.414 447.521 802.301 445.833 802.219 444.458C802.054 441.703 801.618 441.634 793.569 443.08ZM307.459 445.385C307.157 446.17 307.059 447.85 307.24 449.118L307.569 451.424L315.871 452.778C325.965 454.424 327.301 454.053 326.883 449.717L326.569 446.463L320.069 445.257C311.362 443.642 308.115 443.675 307.459 445.385ZM772.569 446.583C771.469 446.81 767.947 447.507 764.742 448.13L758.916 449.264L759.479 451.361C759.788 452.514 760.048 454.021 760.055 454.708C760.072 456.252 763.486 456.292 771.791 454.846L778.176 453.734L777.873 450.104C777.563 446.397 776.589 445.751 772.569 446.583ZM334.094 449.333C333.53 449.897 333.069 451.586 333.069 453.087V455.816L338.475 456.938C341.448 457.556 345.835 458.15 348.225 458.259L352.569 458.458L352.87 454.863L353.171 451.269L344.145 449.788C337.979 448.776 334.795 448.632 334.094 449.333ZM742.819 451.651L735.069 453.141V456.491C735.069 458.333 735.468 460.087 735.955 460.388C736.443 460.689 740.718 460.217 745.455 459.338L754.069 457.74V455.431C754.069 452.221 753.068 449.939 751.712 450.059C751.083 450.114 747.082 450.831 742.819 451.651ZM359.699 455.208C359.368 456.445 359.09 458.199 359.083 459.104L359.069 460.75L368.08 462.406C373.036 463.317 377.536 463.787 378.08 463.451C378.624 463.115 379.069 461.353 379.069 459.536V456.232L370.819 454.594C360.38 452.522 360.42 452.52 359.699 455.208ZM720.069 455.661C718.694 455.897 715.882 456.528 713.819 457.063L710.069 458.035V461.028C710.069 462.718 710.699 464.263 711.517 464.576C713.381 465.292 729.36 462.699 729.194 461.708C729.125 461.295 729.069 459.608 729.069 457.958V454.958L725.819 455.094C724.031 455.169 721.444 455.424 720.069 455.661ZM385.699 460.208C385.368 461.445 385.09 463.169 385.083 464.037L385.069 465.616L394.544 467.479C399.755 468.504 404.213 469.143 404.451 468.9C404.689 468.657 405.038 466.909 405.226 465.016L405.569 461.574L397.069 459.812C386.207 457.56 386.411 457.553 385.699 460.208ZM693.363 460.826C688.849 461.767 684.909 462.785 684.606 463.088C684.303 463.391 684.339 465.06 684.687 466.798C685.428 470.502 685.782 470.547 696.346 468.277L704.168 466.596L703.869 463.104C703.704 461.184 703.119 459.501 702.569 459.364C702.019 459.227 697.876 459.885 693.363 460.826ZM411.699 466.208C411.368 467.445 411.09 468.988 411.083 469.636C411.07 470.73 429.66 475.708 430.515 474.839C430.722 474.63 431.184 472.883 431.543 470.958L432.196 467.458L424.382 465.708C414.048 463.392 412.437 463.456 411.699 466.208ZM667.569 465.792L659.569 467.458L659.31 469.958C659.167 471.333 659.459 473.085 659.958 473.852L660.865 475.246L669.967 473.478L679.069 471.71V469.416C679.069 466.226 678.067 463.942 676.712 464.042C676.083 464.089 671.969 464.876 667.569 465.792ZM642.569 471.371L633.569 473.555L633.831 476.007C634.321 480.592 634.566 480.734 640.415 479.817C643.448 479.341 647.648 478.378 649.749 477.677L653.569 476.402L653.251 473.43C653.076 471.795 652.626 470.172 652.251 469.822C651.876 469.473 647.519 470.17 642.569 471.371ZM438.736 470.625C438.369 470.991 438.069 472.549 438.069 474.086V476.881L441.819 477.825C443.882 478.344 447.982 479.318 450.932 479.99L456.294 481.212L457.191 479.835C457.684 479.078 457.971 477.333 457.828 475.958L457.569 473.458L451.069 471.776C444.059 469.962 439.796 469.564 438.736 470.625ZM465.145 476.282C464.553 476.874 464.069 478.547 464.069 480.001V482.644L471.939 484.801C476.268 485.987 480.717 486.958 481.826 486.958H483.842L484.337 483.708C484.609 481.92 484.698 480.308 484.533 480.124C484.369 479.94 480.181 478.759 475.227 477.498L466.22 475.207L465.145 476.282ZM616.069 477.269L607.569 479.458L607.31 481.958C607.167 483.333 607.425 485.031 607.883 485.731L608.716 487.004L617.642 484.901C622.552 483.743 626.858 482.495 627.212 482.127C628.245 481.051 626.953 474.952 625.706 475.019C625.08 475.052 620.744 476.064 616.069 477.269ZM491.559 483.183C491.303 483.884 490.975 485.583 490.831 486.958L490.569 489.458L499.569 491.718C504.519 492.96 509.072 493.785 509.687 493.55C511.273 492.943 512.006 488.149 510.679 487.054C509.708 486.251 503.957 484.616 494.797 482.538C492.977 482.125 491.865 482.346 491.559 483.183ZM588.069 484.364L579.569 486.614L579.779 489.446C580.1 493.773 581.232 494.252 587.186 492.579C590.147 491.747 594.508 490.567 596.878 489.958L601.188 488.849L600.878 485.653L600.569 482.458L598.569 482.286C597.469 482.191 592.744 483.126 588.069 484.364ZM84.7358 585.625C84.3688 585.991 84.0688 587.711 84.0688 589.447V592.603L90.5888 595.281C94.1748 596.753 97.7858 597.958 98.6138 597.958C99.9488 597.958 102.069 594.281 102.069 591.966C102.069 591.491 98.4838 589.721 94.1008 588.031C85.1998 584.598 85.6468 584.713 84.7358 585.625ZM998.23 587.124L993.891 589.111L994.551 591.785C995.555 595.855 996.416 596.203 1000.97 594.38L1005.17 592.699L1004.87 589.156C1004.7 587.207 1004.12 585.505 1003.57 585.374C1003.02 585.243 1000.62 586.031 998.23 587.124ZM977.755 595.196L969.942 598.316L970.576 600.887C970.925 602.301 971.556 603.813 971.979 604.247C972.888 605.181 990.069 599.162 990.069 597.91C990.069 596.07 987.691 591.961 986.658 592.017C986.059 592.05 982.053 593.48 977.755 595.196ZM107.083 596.421C106.525 597.888 106.069 599.476 106.069 599.95C106.069 600.785 120.986 606.958 123.002 606.958C124.155 606.958 126.069 603.712 126.069 601.755C126.069 600.678 119.159 597.549 109.333 594.179C108.653 593.946 107.641 594.955 107.083 596.421ZM953.889 603.786C949.665 605.256 945.94 606.733 945.611 607.069C944.482 608.224 947.017 612.958 948.764 612.958C952.245 612.958 966.069 607.554 966.069 606.194C966.069 604.022 964.113 600.951 962.784 601.036C962.116 601.079 958.113 602.317 953.889 603.786ZM131.378 606.302L130.352 609.646L139.21 612.737L148.068 615.829L149.068 613.959C149.619 612.931 150.069 611.253 150.069 610.23V608.37L141.759 605.664C137.189 604.176 133.215 602.958 132.927 602.958C132.64 602.958 131.943 604.463 131.378 606.302ZM929.569 611.901L921.569 614.679L921.779 617.479C921.895 619.018 922.345 620.631 922.779 621.062C923.499 621.777 939.374 616.987 940.708 615.653C941.492 614.869 939.663 609.637 938.507 609.353C937.991 609.227 933.969 610.373 929.569 611.901ZM155.699 613.208C154.58 617.385 155.051 617.828 163.564 620.601C172.513 623.515 173.785 623.331 174.29 619.054L174.569 616.693L166.114 613.826C161.464 612.248 157.354 610.958 156.981 610.958C156.608 610.958 156.031 611.971 155.699 613.208ZM904.257 619.697L895.944 622.325L896.577 624.891C896.926 626.303 897.581 627.837 898.033 628.301C898.485 628.765 902.728 627.963 907.462 626.519L916.069 623.894V622.008C916.069 619.204 915.006 616.951 913.712 617.013C913.083 617.043 908.828 618.251 904.257 619.697ZM180.221 621.952L179.177 624.946L180.973 625.907C181.961 626.435 186.007 627.765 189.964 628.862L197.159 630.855L198.245 628.47C200.012 624.594 198.666 623.338 190.333 621.09C185.988 619.917 182.17 618.958 181.849 618.958C181.527 618.958 180.795 620.305 180.221 621.952ZM887.569 624.478C887.019 624.677 883.306 625.786 879.319 626.941L872.069 629.043L872.084 631.25C872.093 632.465 872.481 634.059 872.947 634.794L873.794 636.13L882.181 633.912C886.795 632.691 890.844 631.415 891.18 631.075C891.959 630.288 890.253 623.932 889.29 624.037C888.894 624.08 888.119 624.279 887.569 624.478ZM204.553 629.03C204.182 630.719 204.126 632.349 204.429 632.651C205.293 633.515 218.284 636.958 220.681 636.958H222.836L223.375 634.208C223.672 632.695 223.612 631.164 223.242 630.805C222.501 630.086 208.102 625.958 206.335 625.958C205.726 625.958 204.924 627.34 204.553 629.03ZM855.411 632.911C846.473 635.177 846.228 635.338 846.835 638.516C847.53 642.151 848.937 642.396 857.513 640.374C867.02 638.132 867.181 638.022 866.217 634.418C865.24 630.764 864.359 630.641 855.411 632.911ZM229.585 634.208C229.354 634.896 229.03 636.358 228.867 637.458L228.569 639.458L237.069 641.622L245.569 643.786L246.819 642.181C247.507 641.298 248.069 639.619 248.069 638.45V636.324L240.819 634.628C232.211 632.615 230.148 632.538 229.585 634.208ZM829.32 639.101L821.07 641.114L821.699 643.786C822.044 645.256 822.706 646.872 823.168 647.378C823.965 648.25 838.588 645.491 840.968 644.02C842.426 643.119 840.785 637.505 838.997 637.273C838.212 637.172 833.857 637.994 829.32 639.101ZM254.008 640.618C252.311 645.081 252.802 645.56 260.842 647.288C271.347 649.545 271.793 649.492 272.585 645.886C272.956 644.197 273.089 642.645 272.882 642.438C272.674 642.23 268.554 641.18 263.726 640.104L254.947 638.148L254.008 640.618ZM804.069 644.82L796.569 646.491L796.85 649.922C797.004 651.809 797.31 653.533 797.531 653.753C797.941 654.163 805.633 652.671 812.319 650.883L816.069 649.881V648.001C816.069 642.516 815.312 642.316 804.069 644.82ZM278.919 646.458C278.836 647.833 278.724 649.501 278.669 650.166C278.563 651.44 294.562 655.213 296.819 654.446C297.507 654.212 298.069 652.478 298.069 650.593V647.166L289.319 645.56C278.395 643.555 279.097 643.494 278.919 646.458ZM779.069 649.856L770.569 651.514L770.724 654.808C770.81 656.62 771.131 658.353 771.439 658.661C772.388 659.61 790.212 655.75 790.695 654.49C791.263 653.01 789.395 647.915 788.344 648.078C787.918 648.145 783.744 648.945 779.069 649.856ZM304.698 651.215C304.367 652.448 304.09 654.158 304.083 655.014L304.069 656.57L313.21 658.323C318.238 659.286 322.7 659.711 323.124 659.267C323.549 658.822 324.048 657.145 324.233 655.541L324.569 652.624L319.069 651.415C316.044 650.751 311.708 649.929 309.434 649.589L305.299 648.971L304.698 651.215ZM753.069 654.83L744.569 656.502L744.887 659.48C745.062 661.118 745.574 662.835 746.025 663.297C746.72 664.006 762.318 661.491 764.196 660.367C765.131 659.808 763.672 653.643 762.543 653.383C762.007 653.26 757.744 653.911 753.069 654.83ZM330.48 656.456C330.135 657.83 330.091 659.572 330.38 660.327C330.865 661.59 339.127 663.567 346.569 664.202L349.569 664.458L349.879 660.708C350.092 658.137 349.778 656.947 348.879 656.923C348.159 656.904 343.969 656.238 339.569 655.443C335.169 654.648 331.465 653.988 331.338 653.978C331.211 653.967 330.825 655.082 330.48 656.456ZM726.828 659.487C723.121 660.225 719.689 661.075 719.201 661.376C718.18 662.007 719.279 668.505 720.383 668.366C729.74 667.184 738.206 665.545 738.649 664.829C738.961 664.323 738.923 662.57 738.564 660.934L737.91 657.958L735.74 658.052C734.546 658.104 730.536 658.749 726.828 659.487ZM356.542 662.083C355.729 665.784 356.612 666.538 362.734 667.369C365.118 667.693 369.049 668.227 371.468 668.556L375.867 669.155L376.569 665.958C376.955 664.199 376.888 662.41 376.42 661.981C375.652 661.278 361.983 658.958 358.608 658.958C357.849 658.958 356.919 660.364 356.542 662.083ZM383.789 663.571C383.393 663.967 383.069 665.745 383.069 667.522V670.753L389.819 671.893C393.531 672.52 398.031 673.291 399.819 673.607L403.069 674.181L403.083 672.319C403.09 671.296 403.35 669.513 403.66 668.358L404.224 666.257L396.396 665.029C392.091 664.353 387.655 663.587 386.539 663.326C385.422 663.065 384.185 663.176 383.789 663.571ZM699.569 664.33L693.569 665.483L693.724 668.792C693.81 670.613 694.118 672.34 694.409 672.631C694.904 673.126 707.437 671.41 711.319 670.316L713.069 669.823V666.391V662.958L709.319 663.067C707.257 663.127 702.869 663.695 699.569 664.33ZM677.069 668.04C674.594 668.515 671.556 669.149 670.319 669.45L668.069 669.996V672.918C668.069 674.525 668.515 676.115 669.059 676.452C670.14 677.12 685.341 675.026 687.042 673.975C687.651 673.598 687.825 671.988 687.456 670.142L686.819 666.958L684.194 667.068C682.75 667.128 679.544 667.566 677.069 668.04ZM409.682 671.142C409.306 673.022 409.486 674.598 410.121 674.99C411.889 676.083 427.867 678.201 429.011 677.494C429.593 677.134 430.069 675.525 430.069 673.918V670.996L427.819 670.504C423.253 669.504 413.65 667.958 412.01 667.958C410.909 667.958 410.097 669.069 409.682 671.142ZM652.569 672.08C649.819 672.575 646.556 673.208 645.319 673.488L643.069 673.996V677.477V680.958L644.819 680.965C645.781 680.968 650.056 680.44 654.319 679.792L662.069 678.612V674.785V670.958L659.819 671.07C658.582 671.131 655.319 671.586 652.569 672.08ZM436.556 675.017C436.177 676.743 436.296 678.585 436.82 679.109C437.781 680.07 455.132 683.229 455.797 682.564C455.993 682.367 456.409 680.638 456.72 678.721L457.286 675.236L448.927 674.008C444.33 673.332 439.821 672.577 438.907 672.329L437.245 671.879L436.556 675.017ZM626.199 676.52C622.145 677.259 618.655 678.039 618.442 678.252C618.229 678.464 618.339 680.06 618.687 681.798L619.319 684.958L621.444 684.897C622.613 684.863 626.719 684.288 630.569 683.619L637.569 682.403L637.218 679.431C636.614 674.309 637.307 674.492 626.199 676.52ZM463.676 678.54C462.451 681.733 463.062 683.918 465.319 684.412C470.421 685.529 479.582 686.958 481.639 686.958H483.842L484.289 683.914C484.837 680.178 484.408 679.902 475.616 678.326C466.201 676.639 464.393 676.671 463.676 678.54ZM602.069 680.476C598.494 681.173 595.232 681.791 594.819 681.85C593.78 682 593.905 686.151 595.001 687.881L595.901 689.305L604.539 688.02L613.176 686.735L612.873 683.096L612.569 679.458L610.569 679.334C609.469 679.266 605.644 679.78 602.069 680.476ZM491.801 685.208C491.529 686.996 491.46 688.628 491.648 688.835C492.305 689.56 511.242 693.119 511.748 692.613C512.029 692.332 512.328 690.646 512.414 688.866L512.569 685.631L504.569 683.826C500.169 682.833 495.608 682.006 494.432 681.989L492.296 681.958L491.801 685.208ZM578.069 684.804L570.569 686.458L570.31 688.958C570.167 690.333 570.441 692.056 570.918 692.787L571.785 694.117L580.521 692.382L589.257 690.647L588.663 687.678C588.336 686.044 588.069 684.314 588.069 683.833C588.069 682.712 587.144 682.802 578.069 684.804ZM542.624 804.04C538.618 820.572 527.932 835.503 514.801 842.914C511.648 844.693 509.069 846.269 509.069 846.416C509.069 846.563 512.107 848.162 515.819 849.969L522.569 853.255L530.089 860.917C535.116 866.04 538.712 870.822 540.938 875.343L544.268 882.107L548.875 873.949C555.039 863.035 563.647 854.457 573.025 849.884L580.354 846.31L574.462 842.995C566.187 838.341 556.082 827.76 552.009 819.487C550.18 815.773 547.725 809.109 546.553 804.678L544.421 796.623L542.624 804.04Z" fill="#FAFAFA"/>
</svg>
