<svg width="483" height="820" viewBox="0 0 483 820" fill="none" xmlns="http://www.w3.org/2000/svg">
<path fill-rule="evenodd" clip-rule="evenodd" d="M190.688 6.75C184.994 26.188 181.656 44.869 180.905 61.5L180.318 74.5L182.018 85.297C185.533 107.608 192.75 122.903 206.581 137.355C217.864 149.144 228.928 157.308 260.081 176.833C295.177 198.829 316.677 212.771 319.034 215.063L320.988 216.962L316.034 215.09C311.572 213.402 293.386 209.205 283.081 207.483C275.995 206.3 249.38 206.887 239.081 208.454C194.036 215.309 167.763 225.049 124.081 251.089C101.734 264.41 84.3461 273.466 66.5811 281.035C58.6061 284.433 48.4811 289.072 44.0811 291.343L36.0811 295.474L27.001 304.487L17.9201 313.5L13.708 321.952C9.23905 330.916 8.80709 334.324 12.0811 334.776L14.0811 335.052L18.543 326.276L23.005 317.5L31.043 309.5C40.573 300.015 45.8341 296.776 64.2521 289.053C89.5961 278.427 101.02 272.559 128.581 256.017C168.464 232.078 190.438 223.455 231.081 215.795L243.081 213.534L263.581 213.538L284.081 213.542L292.541 215.29C301.093 217.057 320.483 222.568 321.411 223.497C321.688 223.773 318.577 224.004 314.498 224.008C273.147 224.054 221.326 243.194 148.081 285.474C111.01 306.873 104.535 310.089 78.5811 319.996C46.4501 332.261 31.05 343.411 7.68803 371.327C-0.565974 381.191 -1.80095 384.227 2.20805 384.802L4.3151 385.104L11.1371 376.802C21.1521 364.614 36.0021 350.253 44.9041 344.146C53.7351 338.088 68.6861 330.462 79.0811 326.714C82.9311 325.326 90.0751 322.573 94.9571 320.595C99.8381 318.618 103.942 317 104.076 317C104.209 317 102.118 321.388 99.4291 326.75C83.5391 358.432 85.413 398.986 105.448 457.008C112.075 476.2 118.172 490.323 131.13 516.5C147.246 549.054 154.878 563.265 195.848 637C229.917 698.316 244.256 722.647 271.552 765.455C289.442 793.512 307.892 815.332 315.956 817.97L319.831 819.238L323.945 817.88C329.299 816.113 333.831 811.475 341.138 800.285C361.317 769.386 380.085 729.091 409.041 654.5C411.603 647.9 416.344 635.75 419.577 627.5C443.811 565.653 465.299 502.571 473.397 469.5C481.563 436.155 484.344 406.091 481.538 381.5C479.861 366.809 475.545 347.124 471.89 337.5C452.484 286.401 412.831 247.889 362.317 231.079C354.548 228.493 333.188 216.37 312.081 202.565C286.79 186.024 281.547 182.682 256.444 167.102C213.842 140.66 200.015 126.036 191.109 98L188.409 89.5L187.866 71.978C187.161 49.208 188.214 41.108 195.531 13C197.034 7.225 198.073 1.938 197.839 1.25C197.606 0.563 196.346 0 195.04 0H192.666L190.688 6.75ZM306.581 230.613C276.605 234.281 261.924 238.18 230.337 250.864C217.366 256.073 191.147 268.816 177.581 276.504C164.303 284.029 162.263 285.183 151.081 291.489C122.622 307.539 119.959 309.235 115.259 314.302C108.783 321.284 101.218 336.826 98.3721 349L96.151 358.5V377L96.152 395.5L97.912 404.5C101.661 423.668 111.386 455.772 118.813 473.5C120.426 477.35 122.873 483.2 124.252 486.5C127.456 494.168 146.087 532.021 151.816 542.5C154.221 546.9 161.273 559.95 167.486 571.5C173.699 583.05 180.477 595.425 182.548 599C184.62 602.575 191.263 614.5 197.311 625.5C203.36 636.5 209.201 647.075 210.291 649C211.382 650.925 213.755 655.2 215.566 658.5C217.376 661.8 220.533 667.425 222.581 671C224.629 674.575 229.13 682.45 232.584 688.5C244.655 709.646 265.472 743.766 277.427 762C296.633 791.294 309.584 807.345 316.545 810.484L320.553 812.291L324.655 809.449C332.165 804.245 348.53 777.098 363.809 744.5C373.421 723.994 386.07 695.375 388.559 688.5C389.555 685.75 391.729 680.125 393.389 676C399.472 660.889 414.558 621.702 425.151 593.5C448.364 531.695 463.808 483.759 469.557 455.67C474.017 433.878 474.968 424.887 475.025 404C475.122 368.554 470.57 347.458 457.177 321.274C433.4 274.79 393.606 244.083 342.762 232.987C334.218 231.122 313.52 229.764 306.581 230.613ZM229.911 257.582C229.005 259.943 236.661 273.976 238.862 273.989C242.037 274.008 241.95 270.975 238.593 264.658C236.794 261.271 234.875 257.938 234.329 257.25C232.95 255.514 230.638 255.688 229.911 257.582ZM241.824 280.207L240.752 281.5L244.364 289.219C248.178 297.37 249.988 299.021 252.43 296.579L253.925 295.085L250.003 287.292C246.131 279.599 243.919 277.683 241.824 280.207ZM253.672 303.922L252.264 304.814L256.024 313.657C258.092 318.521 260.321 323.067 260.978 323.76L262.172 325.02L264.042 323.652L265.912 322.285L264.353 318.392C260.979 309.967 257.292 303.001 256.214 303.015C255.591 303.024 254.447 303.432 253.672 303.922ZM266.248 332.667C264.954 333.96 265.614 337.125 268.72 344.523C271.826 351.922 272.747 352.814 275.493 351.076L276.905 350.182L274.136 342.341C272.613 338.028 270.91 333.938 270.352 333.25C269.245 331.888 267.303 331.612 266.248 332.667ZM275.623 358.953L274.165 359.875L277.099 369.056C280.145 378.587 281.637 380.373 284.317 377.692L285.899 376.111L283.676 369.305C281.421 362.4 279.128 357.988 277.808 358.015C277.408 358.024 276.425 358.446 275.623 358.953ZM283.921 386.557C283.173 388.506 287.321 402.987 289.194 404.964L290.581 406.429L292.175 404.835L293.768 403.241L291.619 395.406C290.437 391.096 288.989 386.992 288.403 386.285C286.945 384.529 284.645 384.669 283.921 386.557ZM291.581 415.044C291.581 418.679 294.806 430.456 296.214 431.964L297.581 433.429L299.219 431.791L300.857 430.153L299.666 425.326C299.011 422.672 298.031 418.813 297.489 416.75L296.504 413H294.042H291.581V415.044ZM298.044 441.06C297.401 442.1 297.798 444.569 300.523 456.5L301.208 459.5H303.645H306.081L305.799 455C305.645 452.525 304.942 448.25 304.239 445.5L302.959 440.5L300.864 440.193C299.712 440.024 298.443 440.414 298.044 441.06ZM303.205 468.75C302.924 469.712 303.485 474.26 304.452 478.856C306.275 487.52 308.246 490.313 310.566 487.518L311.774 486.063L310.513 478.781C309.819 474.777 308.887 470.487 308.441 469.25C307.475 466.569 303.94 466.232 303.205 468.75ZM308.717 496.336L307.608 497.672L308.766 506.086C309.997 515.039 311.203 517.466 313.903 516.43C315.879 515.672 315.947 514.269 314.477 504.692C313.088 495.646 311.365 493.146 308.717 496.336ZM312.696 524.362L311.566 525.723L312.866 534.106L314.167 542.489L315.98 542.838C319.312 543.48 319.815 541.642 318.568 533.364C317.105 523.642 315.427 521.07 312.696 524.362ZM315.335 551.25C314.512 553.485 316.763 568.46 318.141 569.914L319.481 571.328L321.076 570.004L322.671 568.681L321.988 561.59C321.612 557.691 320.928 553.487 320.468 552.25C319.571 549.84 316.103 549.164 315.335 551.25ZM318.08 578.002C317.474 578.983 318.225 591.232 319.173 595.815L319.652 598.13L321.866 597.815L324.081 597.5L323.884 589.531C323.632 579.302 323.033 577 320.621 577C319.564 577 318.42 577.451 318.08 578.002ZM319.912 604.579C319.103 606.689 320.44 622.259 321.524 623.343C321.995 623.814 323.341 623.894 324.515 623.521L326.65 622.843L326.055 615.172C325.206 604.213 324.855 603 322.531 603C321.424 603 320.246 603.71 319.912 604.579ZM321.86 630.25C321.3 630.975 321.143 635.073 321.487 640L322.081 648.5H324.581H327.081L326.72 640C326.387 632.148 325.489 629 323.581 629C323.166 629 322.391 629.563 321.86 630.25ZM322.618 657.455L321.339 658.997L322.21 667.748L323.081 676.5H325.081H327.081V666.514V656.527L325.489 656.221C324.613 656.052 323.321 656.608 322.618 657.455ZM323.703 685.278C323.019 685.962 322.581 690.421 322.581 696.7V707H324.977H327.373L328.074 699.08C328.46 694.724 328.479 689.811 328.117 688.163C327.387 684.841 325.423 683.558 323.703 685.278ZM323.11 715.614L321.581 717.143V725.603V734.063L323.226 734.694C326.187 735.83 327.581 732.22 327.581 723.416V715.214L326.11 714.649C325.301 714.339 323.951 714.773 323.11 715.614ZM321.781 740.2C321.029 740.952 320.581 744.689 320.581 750.2V759H322.606C325.311 759 326.581 755.37 326.581 747.635C326.581 742.113 325.5 739 323.581 739C323.251 739 322.441 739.54 321.781 740.2ZM320.84 767.25C320.298 767.938 319.578 771.94 319.24 776.145L318.624 783.791L320.103 785.018L321.581 786.245L322.966 785.095C323.778 784.421 324.642 780.839 325.055 776.433L325.759 768.92L324.548 767.46C323.064 765.672 322.126 765.619 320.84 767.25ZM318.69 790.797C318.161 791.785 317.62 795.922 317.488 799.99L317.249 807.388L318.973 808.444L320.698 809.5L322.14 807.559C323.102 806.263 323.581 803.058 323.581 797.916V790.214L321.999 789.607C319.808 788.766 319.769 788.78 318.69 790.797Z" fill="white"/>
</svg>
