<svg width="484" height="819" viewBox="0 0 484 819" fill="none" xmlns="http://www.w3.org/2000/svg">
<path fill-rule="evenodd" clip-rule="evenodd" d="M283.915 1.39474C283.611 2.18774 284.247 5.90074 285.329 9.64474C291.871 32.2867 294.473 48.9297 294.444 67.9517C294.378 110.555 279.706 132.566 230.754 163.503C228.004 165.241 222.829 168.457 219.254 170.649C211.705 175.279 192.474 187.634 166.254 204.701C143.983 219.197 128.586 227.777 117.531 231.853C72.453 248.47 39.692 277.956 17.979 321.454C12.954 331.52 6.181 351.81 4.292 362.454C3.608 366.304 2.61199 371.704 2.07899 374.454C1.54499 377.204 0.859001 387.329 0.554001 396.954L0 414.454L1.68999 427.954C7.90699 477.598 20.089 514.474 68.752 630.954C78.784 654.965 82.594 663.944 86.998 673.954C89.782 680.279 94.401 690.854 97.263 697.454C103.883 712.719 125.572 756.666 132.304 768.454C152.893 804.509 162.498 816.971 170.913 818.55C184.385 821.077 197.056 804.927 243.952 725.454C250.2 714.865 256.671 703.446 274.267 671.954C276.879 667.279 280.693 660.304 282.742 656.454C284.792 652.604 288.996 644.729 292.084 638.954C344.136 541.638 379.976 456.842 390.321 406.533C396.509 376.443 393.904 347.91 382.97 326.01C377.665 315.385 377.588 315.185 379.341 316.569C380.118 317.183 387.941 320.488 396.726 323.914C416.035 331.444 428.532 337.558 437.238 343.736C445.431 349.549 463.863 367.517 471.754 377.382L477.754 384.883L480.245 384.668C481.616 384.55 482.864 383.779 483.02 382.954C483.35 381.205 474.164 369.679 463.892 358.954C443.843 338.021 431.75 330.477 395.775 316.458C377.96 309.517 363.868 302.407 336.254 286.432C263.095 244.106 217.759 227.069 170.864 224.28L159.975 223.632L164.609 221.812C172.314 218.785 188.115 215.204 199.557 213.89C225.291 210.937 261.545 216.011 294.254 227.145C310.762 232.764 340.186 247.593 363.254 261.919C364.079 262.432 371.279 266.414 379.254 270.768C393.764 278.691 399.224 281.272 421.854 290.906C436.148 296.991 443.358 301.53 451.477 309.554C456.994 315.007 466.254 328.829 466.254 331.612C466.254 333.535 469.179 335.92 470.783 335.305C473.201 334.377 472.473 330.051 468.55 322.029L464.846 314.454L455.772 305.454C445.269 295.037 437.427 290.22 418.099 282.316C402.495 275.936 378.303 263.474 356.102 250.383C318.655 228.3 293.283 218.097 259.604 211.578C239.412 207.669 227.603 206.645 209.835 207.261L193.754 207.818L182.754 210.304C176.704 211.672 169.771 213.508 167.348 214.383C164.925 215.259 162.747 215.78 162.508 215.541C161.937 214.97 191.981 195.258 220.254 177.654C255.373 155.787 266.263 147.709 277.86 134.927C299.784 110.761 306.369 75.4377 297.151 31.4537C294.724 19.8717 290.546 4.36674 289.148 1.75574C287.994 -0.401255 284.691 -0.628263 283.915 1.39474ZM49.396 285.788C72.865 258.683 108.781 238.265 143.254 232.429C147.379 231.73 156.408 231.113 163.318 231.057C193.373 230.811 223.291 238.336 264.378 256.475C287.553 266.707 302.168 274.491 352.44 303.377C365.092 310.647 368.431 313.902 375.304 325.662C383.271 339.297 386.703 353.979 386.709 374.454C386.713 390.609 385.756 397.792 381.112 416.454C376.939 433.227 365.614 467.127 359.895 479.965C359.041 481.884 354.227 493.129 349.199 504.954C331.848 545.758 308.473 594.532 290.249 627.954C286.5 634.829 279.631 647.429 274.985 655.954C257.835 687.422 248.699 703.785 240.927 716.954C236.546 724.379 231.84 732.479 230.47 734.954C229.101 737.429 226.992 741.029 225.783 742.954C224.575 744.879 220.974 750.729 217.782 755.954C200.707 783.899 191.434 797.122 182.54 806.204L176.91 811.954H173.748H170.587L166.67 808.186C161.939 803.635 155.388 794.568 148.077 782.454C132.856 757.233 108.048 707.026 93.231 671.454C91.17 666.504 84.429 650.529 78.251 635.954C62.579 598.975 51.215 571.012 39.036 539.454C25.804 505.168 13.141 461.739 9.586 438.454L7.754 426.454L7.762 403.454C7.77 379.464 8.387 373.676 12.852 355.742C19.276 329.939 31.61 306.328 49.396 285.788ZM242.964 255.641C238.966 262.007 238.076 264.046 238.646 265.532C239.857 268.688 243.108 266.941 246.7 261.204C250.655 254.886 250.867 252.616 247.546 252.141L245.358 251.829L242.964 255.641ZM233.138 272.594C230.67 275.568 226.43 285.249 226.974 286.668C227.268 287.433 228.464 287.923 229.631 287.757C232.369 287.366 238.675 275.856 237.749 272.939C236.984 270.528 234.978 270.377 233.138 272.594ZM222.875 293.666C222.047 294.495 216.18 306.864 212.638 315.249C210.032 321.42 210.177 322.954 213.368 322.954H215.364L217.708 317.704C218.998 314.817 221.858 308.675 224.065 304.055C226.272 299.436 227.844 295.049 227.559 294.305C227.009 292.872 224.07 292.471 222.875 293.666ZM206.219 332.019C205.576 333.221 204.006 337.272 202.731 341.022L200.412 347.84L201.82 349.009C202.595 349.652 203.85 349.939 204.61 349.648C206.303 348.998 211.58 334.884 211.087 332.324C210.572 329.65 207.588 329.462 206.219 332.019ZM197.55 357.204C195.933 359.332 192.305 372.924 192.923 374.535C193.247 375.377 194.419 375.924 195.544 375.757L197.579 375.454L199.917 368.509C201.202 364.69 202.254 360.302 202.254 358.759V355.954H200.376C199.344 355.954 198.072 356.517 197.55 357.204ZM189.891 383.733C189.626 384.161 188.449 388.275 187.274 392.875C185.083 401.458 185.39 403.466 188.793 402.798L190.544 402.454L192.955 394.073C194.282 389.463 195.131 385.075 194.842 384.323C194.281 382.862 190.693 382.434 189.891 383.733ZM183.454 411.213C182.344 412.551 179.254 424.832 179.254 427.909C179.254 430.241 182.226 431.429 183.837 429.741C184.513 429.033 185.786 424.904 186.666 420.565L188.267 412.675L187.138 411.315C185.734 409.623 184.795 409.597 183.454 411.213ZM176.877 439.704C175.994 442.726 174.254 453.222 174.254 455.531C174.254 458.314 177.289 459.626 178.836 457.511C180.307 455.499 182.696 441.547 181.916 439.516C181.104 437.398 177.512 437.532 176.877 439.704ZM173.292 466.409C171.84 468.158 168.936 483.631 169.798 485.025C170.114 485.536 171.228 485.954 172.274 485.954H174.177L175.305 481.763C176.829 476.104 177.048 465.766 175.654 465.275C175.049 465.062 173.986 465.572 173.292 466.409ZM168.463 494.204C167.137 495.805 165.091 510.365 165.897 512.466C166.25 513.387 167.395 513.932 168.607 513.757L170.706 513.454L172.103 504.089L173.501 494.725L172.127 493.855C170.273 492.68 169.679 492.737 168.463 494.204ZM164.827 521.836C164.49 522.382 163.75 526.528 163.183 531.051L162.152 539.273L163.453 540.112C167.327 542.612 169.588 537.294 169.043 526.964L168.754 521.473L167.097 521.158C166.186 520.985 165.164 521.29 164.827 521.836ZM161.828 548.834C161.529 549.318 160.991 553.522 160.634 558.175L159.983 566.636L161.842 567.35C163.034 567.807 164.107 567.508 164.833 566.515C166.009 564.906 167.503 550.167 166.633 548.758C165.965 547.678 162.509 547.733 161.828 548.834ZM159.762 576.134C159.497 576.86 159.161 581.279 159.017 585.954L158.754 594.454L160.918 594.762C163.612 595.146 164.028 593.812 164.437 583.454L164.754 575.454L162.5 575.134C161.26 574.958 160.028 575.408 159.762 576.134ZM159.254 600.934L157.754 601.881L157.4 610.44C157.165 616.14 157.451 619.486 158.255 620.456L159.464 621.912L161.395 620.879L163.325 619.846L163.04 610.231C162.756 600.673 162.124 599.122 159.254 600.934ZM157.504 627.616C156.645 627.963 156.254 630.715 156.254 636.415V644.709L157.741 645.943C158.559 646.622 159.909 646.917 160.741 646.597L162.254 646.017V636.485V626.954L160.504 627.033C159.541 627.076 158.192 627.339 157.504 627.616ZM157.336 654.355C156.592 655.252 156.278 658.941 156.464 664.605L156.754 673.454H159.254H161.754L162.044 664.605C162.316 656.318 161.511 652.954 159.254 652.954C158.839 652.954 157.976 653.585 157.336 654.355ZM157.26 681.447L156.021 682.94L156.422 692.932C156.668 699.056 157.304 703.404 158.066 704.166L159.309 705.409L160.914 704.397L162.519 703.384L162.325 692.948C162.103 680.992 160.555 677.477 157.26 681.447ZM158.666 712.097C157.871 713.383 158.032 726.477 158.877 729.262C159.231 730.429 160.193 730.961 161.59 730.762L163.754 730.454L164.044 723.375C164.204 719.482 163.878 715.094 163.319 713.625C162.271 710.867 159.906 710.091 158.666 712.097ZM160 738.204C159.327 740 161.288 754.237 162.396 755.601C162.908 756.231 164.201 756.519 165.269 756.24L167.21 755.732L166.594 748.093C166.256 743.892 165.575 739.666 165.081 738.704C164.047 736.687 160.692 736.357 160 738.204ZM164.316 763.916L163.059 764.693L163.779 772.374C164.513 780.207 166.09 783.338 168.783 782.305C170.552 781.626 170.718 776.216 169.189 769.085C168.114 764.073 166.622 762.49 164.316 763.916ZM166.951 789.301C166.284 791.04 168.971 803.908 170.348 805.567C170.927 806.265 172.088 806.571 172.928 806.249L174.456 805.663L173.754 799.107C173.368 795.502 172.658 791.518 172.178 790.253C171.224 787.744 167.789 787.118 166.951 789.301Z" fill="white
"/>
</svg>
